<svg width="200" height="80" xmlns="http://www.w3.org/2000/svg" color-interpolation-filters="sRGB" preserveAspectRatio="xMidYMid meet" version="1.0">

 <g>
  <title>Layer 1</title>
  <g id="svg_5" class="icon-text-wrapper icon-svg-group iconsvg" fill="#333333">
   <g id="svg_6" class="iconsvg-imagesvg">
    <g id="svg_7">
     <rect id="svg_8" class="image-rect" height="60.25185" width="60" y="9.87408" x="14.1241" stroke-width="2" fill-opacity="0" fill="#333333"/>
     <svg id="svg_9" class="image-svg-svg primary" filtersec="colorsb6733008215" height="60.25185" width="60" y="9.87408" x="14.1241">
      <svg id="svg_10" viewBox="0.0555555559694767 -0.012834787368774414 180.89454650878906 181.65353393554688" xmlns="http://www.w3.org/2000/svg">
       <defs>
        <linearGradient x1="-0.00031" y2="0.49992" x2="1" y1="0.49992" id="svg_3">
         <stop stop-color="#278cff" offset="0"/>
         <stop stop-color="#4ad8b9" offset="0.49"/>
         <stop stop-color="#5ef084" offset="0.99"/>
        </linearGradient>
       </defs>
       <path id="svg_11" fill="url(#svg_3)" d="m0.1,129.51c0,-13.33 -0.1,-26.66 0,-40c0.43,-46.39 36.81,-85.51 83.1,-88.51c31.1,-2 62.28,-0.35 93.43,-0.75c3.21,-0.05 4.31,1.24 4.3,4.48c-0.14,31.16 0.29,62.33 -0.31,93.47c-0.72,37.25 -31.56,72.5 -70.1,81.2a79.89,79.89 0 0 1 -18.31,2.13c-11.67,-0.09 -23.33,0 -35,0c-7.61,0 -7.64,0 -7.65,-7.89l0,-70a152.19,152.19 0 0 1 0.68,-17c1.89,-16.14 10.9,-27.03 25.76,-33.42c3.92,-1.68 5,-0.19 4.93,3.65c-0.12,12.49 0.16,25 -0.13,37.49c-0.11,4.73 1.59,6 6.07,5.94c12.33,-0.23 24.66,-0.11 37,-0.06c6,0 6.42,0.81 4.09,6.41a40.52,40.52 0 0 1 -37.22,24.89c-11,0.1 -9.76,-1.46 -9.82,9.87c-0.05,8.88 0,8.88 9,8.83c29.45,-0.18 52.62,-18.82 58.77,-47.31c1.14,-5.27 0.69,-10.62 1,-15.94c0.21,-4.07 -1.29,-5.59 -5.48,-5.52c-12.83,0.2 -25.66,-0.07 -38.49,0.15c-4.25,0.07 -5.8,-1 -5.69,-5.6c0.34,-13.16 0.12,-26.33 0.15,-39.49c0,-2.64 0.05,-4.85 -3.72,-5c-33.36,-1.6 -58,19.33 -64,47.42a62.4,62.4 0 0 0 -1,12.93l0,72.48c0,3.49 -0.18,7 -0.39,10.48c-0.41,6.72 -0.44,6.72 -7.35,6.73c-6.16,0 -12.34,-0.17 -18.49,0.06c-3.85,0.14 -5.21,-1.07 -5.15,-5.11c0.14,-15.68 0.01,-31.35 0.02,-47.01z"/>
      </svg>
     </svg>
     <!---->
    </g>
   </g>
   <g id="svg_12">
    <g id="svg_13" class="tp-name iconsvg-namesvg" data-gra="path-name">
     <g id="svg_14" transform="translate(84.1241 91.7963) scale(0.66 0.66)">
      <g id="svg_15">
       <path id="svg_16" d="m48.67939,-96.65787c9.61,-6.04 15.56,-14.45 18.7,-24.31l-11.22,0c-2.12,6.12 -5.52,11.64 -11.22,15.98l0,-13.52c0,-4.42 -2.38,-6.8 -6.8,-6.8l-44.2,0l0.77,8.84l38.16,0c1.11,0 1.7,0.6 1.7,1.7l0,23.72c0,12.92 0.51,20.48 1.87,26.69c1.36,6.55 5.78,10.54 13.86,10.97c4.93,0.25 11.81,-0.09 17,-1.28l1.53,-11.39c-5.19,1.19 -11.48,1.53 -16.58,1.53c-3.57,0 -5.61,-1.53 -6.12,-4.85c-0.51,-3.06 -1.02,-10.2 -1.19,-18.44c8.07,2.38 15.73,5.44 23.55,9.26l0,-10.88c-5.95,-2.72 -12.59,-5.1 -19.81,-7.22zm105.49,33.4l-76.76,0l0.76,8.51l76,0l0,-8.51zm-16.5,-21.08l0,6.04c0,0.76 -0.5,1.28 -1.27,1.28l-15.22,0l0,-7.32l16.49,0zm0,-7.82l-16.49,0l0,-7.31l15.22,0c0.77,0 1.27,0.51 1.27,1.28l0,6.03zm-7.31,-15.47l5.19,-4.84c4.5,-4.17 2.46,-10.54 -4.08,-10.54l-23.97,0c0.94,-1.87 1.79,-3.74 2.55,-5.78l-10.11,0c-3.83,8.41 -10.46,14.87 -22.02,21.08l2.55,9.52c1.53,-0.85 2.98,-1.62 4.34,-2.47l0,24.99c0,4.42 2.38,6.8 6.8,6.8l49.21,0c4.42,0 6.8,-2.38 6.8,-6.8l0,-25.16c0,-4.42 -2.38,-6.8 -6.8,-6.8l-10.46,0zm-12.91,0l-22.61,0c2.8,-2.29 5.27,-4.67 7.3,-7.22l22.7,0l-7.39,7.22zm-6.12,30.61l-15.22,0c-0.77,0 -1.27,-0.52 -1.27,-1.28l0,-6.04l16.49,0l0,7.32zm0,-15.14l-16.49,0l0,-6.03c0,-0.77 0.5,-1.28 1.27,-1.28l15.22,0l0,7.31z"/>
      </g>
      <!---->
      <!---->
      <!---->
      <!---->
      <!---->
      <!---->
      <!---->
     </g>
    </g>
    <g id="svg_17" fill="#5C5C5C" class="tp-slogan iconsvg-slogansvg" data-gra="path-slogan">
     <!---->
     <!---->
     <g id="svg_18" transform="translate(84.1241 91.7963) scale(1 1)">
      <g id="svg_19" transform="translate(66 0) scale(1 1)">
       <path id="svg_20" d="m-36.5041,-28.53259l0,0l0,1.03q-0.05,0 -0.24,0l0,0q-0.93,-0.09 -1.78,-0.09l0,0l-0.23,0l0,3.14l0.89,0q1.31,0 1.97,-0.09l0,0q0.09,0 0.14,0l0,0l0,1.08q-0.05,0 -0.14,0l0,0q-0.8,-0.1 -1.93,-0.1l0,0l-0.93,0l0,3.28q0,0.85 0.09,1.46l0,0q0,0.09 0,0.14l0,0l-1.17,0q0,0 0,-0.1l0,0q0.09,-0.65 0.09,-1.5l0,0l0,-3.28l-2.25,0q-0.33,3.19 -3.09,4.83l0,0q-0.33,-0.42 -1.13,-0.89l0,0q2.72,-0.56 3.24,-3.94l0,0l-1.31,0q-1.04,0 -1.88,0.1l0,0q-0.14,0 -0.14,0l0,0l0,-1.08q0,0 0.14,0l0,0q0.84,0.09 1.83,0.09l0,0l1.41,0q0.04,-0.75 0,-3.14l0,0l-0.52,0q-0.94,0 -1.83,0.09l0,0q-0.14,0 -0.14,0l0,0l0,-1.03q0,0 0.14,0l0,0q0.94,0.1 1.88,0.1l0,0l4.87,0q0.89,0 1.74,-0.1l0,0q0.18,0 0.28,0zm-3.24,0.94l-2.2,0q0,-0.14 0,0.52l0,0q0,1.64 -0.05,2.62l0,0l2.25,0l0,-3.14zm5.86,-0.8l0.61,-0.79q0.75,0.37 1.92,1.22l0,0l-0.7,0.79q-1.08,-0.89 -1.83,-1.22l0,0zm9.89,-0.42l0,1.03q-0.23,0 -0.61,-0.04l0,0q-0.61,-0.05 -1.03,-0.05l0,0l-0.94,0l-0.46,1.22l1.17,0q0.7,0 1.22,-0.1l0,0q-0.1,0.29 -0.1,1.08l0,0l0,2.02q0,0.56 0.1,1.17l0,0q0,0.09 0,0.09l0,0q-0.28,-0.09 -1.32,-0.09l0,0l-0.65,0l0,2.58q0.28,1.26 -1.88,1.26l0,0q-0.14,-0.56 -0.37,-0.93l0,0q-0.05,-0.1 -0.05,-0.14l0,0q1.27,0.23 1.41,-0.29l0,0l0,-2.48l-0.57,0q-1.12,0 -1.35,0.09l0,0q0,0 0,-0.09l0,0q0.04,-0.56 0.04,-1.12l0,0l0,-2.07q0,-0.47 -0.04,-0.93l0,0q0,-0.1 0,-0.15l0,0q0.46,0.1 1.12,0.1l0,0l0.33,0l0.28,-1.22l-2.53,0l0,2.48q0.05,4.13 -1.55,6.61l0,0q-0.61,-0.65 -0.94,-0.79l0,0q1.64,-1.69 1.6,-5.49l0,0l0,-2.48q0,-0.61 -0.1,-1.13l0,0q0,-0.09 0,-0.09l0,0q0.05,0 1.32,0.05l0,0l4.26,0q0.89,0 1.64,-0.1l0,0zm-10.45,3.19l0.52,-0.84q0.98,0.37 2.1,1.07l0,0l-0.65,0.89q-0.89,-0.6 -1.97,-1.12l0,0zm8.81,-0.28l-2.81,0l0,0.98l2.81,0l0,-0.98zm0,1.69l-2.81,0l0,0.98l2.81,0l0,-0.98zm-7.5,0.09l0,0l0.89,0.61q-0.23,2.01 -0.89,4.41l0,0l-1.03,-0.71q0.56,-1.31 1.03,-4.31zm3.99,2.2l0,0l1.03,0.42q-0.05,0.1 -0.14,0.24l0,0q-1.08,1.5 -1.6,1.87l0,0q-0.47,-0.28 -0.93,-0.37l0,0q1.07,-0.94 1.64,-2.16zm3.04,0.47l0.75,-0.37q0.89,0.84 1.69,1.92l0,0l-1.08,0.42q-0.51,-1.08 -1.36,-1.97l0,0zm13.41,-6.47l0,0l0,1.08q-0.28,-0.05 -1.88,-0.05l0,0l-1.96,0l0,6.29l2.39,0q1.5,0 2.29,-0.1l0,0l0,1.08q-0.79,-0.09 -2.25,-0.09l0,0l-6.23,0q-1.41,0 -1.92,0.09l0,0l0,-1.08q0.61,0.05 1.87,0.1l0,0l2.81,0l0,-6.29l-1.82,0q-1.27,0 -1.97,0.1l0,0l0,-1.13q0.33,0.05 1.97,0.05l0,0l4.78,0q1.54,0 1.92,-0.05zm8.06,-1.26l0,0q1.03,0.23 1.13,0.42l0,0q-0.05,0.09 -0.19,0.28l0,0q-0.19,0.14 -0.23,0.23l0,0q-0.05,0.1 -0.24,0.43l0,0q-0.19,0.37 -0.33,0.61l0,0l2.91,0q0.94,0 1.83,-0.1l0,0l0,0.99q-0.42,-0.05 -1.88,-0.1l0,0l-1.97,0l0,1.88l1.78,0q0.71,0 1.6,-0.1l0,0l0,0.99q-0.75,-0.1 -1.6,-0.1l0,0l-1.78,0l0,2.07l1.97,0q0.94,-0.05 1.64,-0.1l0,0l0,0.99q-0.65,-0.05 -1.64,-0.1l0,0l-1.97,0l0,0.71q0,1.12 0.1,1.59l0,0l-1.13,0q0.1,-0.84 0.1,-1.73l0,0l0,-6.1l-0.38,0l-1.22,2.21q-0.42,-0.29 -0.98,-0.43l0,0q1.54,-1.92 2.48,-4.54zm-3.33,0.04l0,0q1.18,0.38 1.13,0.57l0,0q0,0.09 -0.14,0.18l0,0q-0.19,0.19 -0.28,0.38l0,0q-0.42,0.94 -0.61,1.41l0,0l0,6q0,0.23 0.04,0.98l0,0q0,0.56 0,0.7l0,0l-0.98,0q0.09,-0.79 0.09,-1.68l0,0l0,-4.55l-1.12,1.92q-0.24,-0.28 -0.75,-0.8l0,0q1.64,-2.01 2.62,-5.11zm14.02,0.14l1.27,-0.14q0.28,0.57 0.46,1.36l0,0l3.1,0q0.42,0 0.94,-0.09l0,0q0.09,0 0.09,0l0,0q-0.09,0.23 -0.09,0.94l0,0l0,0.33q0,0.65 0.09,1.07l0,0l-1.17,0q0.09,-0.47 0.09,-1.12l0,0l0,-0.28l-7.69,0l0,0.37q0,0.56 0.1,1.03l0,0l-1.17,0q0.09,-0.47 0.09,-1.03l0,0l0,-0.47q0,-0.61 -0.09,-0.84l0,0q0.56,0.09 1.07,0.09l0,0l3.47,0q-0.04,-0.32 -0.33,-0.75l0,0q-0.14,-0.28 -0.23,-0.47l0,0zm-2.53,3.9l0,-1.04q0.61,0.1 1.5,0.1l0,0l3.61,0q1.22,0 1.78,-0.1l0,0l0,1.04q-0.38,-0.1 -1.74,-0.1l0,0l-1.54,0q-0.19,0.1 -0.71,0.56l0,0q-0.89,0.8 -1.31,0.99l0,0q1.6,-0.05 3.75,-0.19l0,0q-0.33,-0.28 -0.84,-0.61l0,0l0.7,-0.47q0.38,0.19 1.88,1.41l0,0q0.47,0.33 0.61,0.47l0,0l-0.85,0.7q-0.04,-0.05 -0.19,-0.23l0,0q-0.28,-0.38 -0.46,-0.57l0,0l-2.3,0.1l0,1.17l1.78,0q1.36,0 1.88,-0.14l0,0l0,1.08q-0.61,-0.1 -1.93,-0.1l0,0l-1.73,0l0,1.18l2.58,0q1.4,0 2.06,-0.15l0,0l0,1.04q-0.61,-0.14 -2.06,-0.14l0,0l-6.1,0q-1.54,0 -2.06,0.14l0,0l0,-1.04q0.56,0.15 2.06,0.15l0,0l2.53,0l0,-1.18l-2.01,0q-1.27,0 -1.64,0.1l0,0l0,-1.03q0.42,0.09 1.59,0.09l0,0l2.06,0l0,-1.13q-0.23,0.05 -0.84,0.05l0,0q-1.69,0.1 -2.3,0.33l0,0l-0.37,-0.94q0.51,-0.04 1.12,-0.23l0,0q1.08,-0.61 1.69,-1.41l0,0l-0.65,0q-1.13,0 -1.55,0.1l0,0z"/>
      </g>
     </g>
    </g>
   </g>
  </g>
 </g>
</svg>